<?xml version="1.0" encoding="UTF-8"?>
<svg xmlns="http://www.w3.org/2000/svg" xmlns:xlink="http://www.w3.org/1999/xlink" width="35px" height="23px" viewBox="0 0 34 23" version="1.1">
<defs>
<linearGradient id="linear0" gradientUnits="userSpaceOnUse" x1="-37.6312" y1="-37.5455" x2="11.3667" y2="11.412" gradientTransform="matrix(0.280164,0,0,-0.284051,20.123659,8.343278)">
<stop offset="0" style="stop-color:rgb(100%,83.529412%,12.941176%);stop-opacity:1;"/>
<stop offset="0.05" style="stop-color:rgb(100%,83.529412%,12.941176%);stop-opacity:1;"/>
<stop offset="0.501119" style="stop-color:rgb(96.078431%,0%,0%);stop-opacity:1;"/>
<stop offset="0.95" style="stop-color:rgb(72.54902%,0%,70.588235%);stop-opacity:1;"/>
<stop offset="0.950079" style="stop-color:rgb(72.54902%,0%,70.588235%);stop-opacity:1;"/>
<stop offset="1" style="stop-color:rgb(72.54902%,0%,70.588235%);stop-opacity:1;"/>
</linearGradient>
<linearGradient id="linear1" gradientUnits="userSpaceOnUse" x1="0.4867" y1="0.536" x2="49.5047" y2="49.554" gradientTransform="matrix(0.28005,0,0,-0.284168,9.444444,19.179539)">
<stop offset="0" style="stop-color:rgb(100%,83.529412%,12.941176%);stop-opacity:1;"/>
<stop offset="0.05" style="stop-color:rgb(100%,83.529412%,12.941176%);stop-opacity:1;"/>
<stop offset="0.501119" style="stop-color:rgb(96.078431%,0%,0%);stop-opacity:1;"/>
<stop offset="0.95" style="stop-color:rgb(72.54902%,0%,70.588235%);stop-opacity:1;"/>
<stop offset="0.950079" style="stop-color:rgb(72.54902%,0%,70.588235%);stop-opacity:1;"/>
<stop offset="1" style="stop-color:rgb(72.54902%,0%,70.588235%);stop-opacity:1;"/>
</linearGradient>
<linearGradient id="linear2" gradientUnits="userSpaceOnUse" x1="-12.5688" y1="-12.5305" x2="36.4315" y2="36.4816" gradientTransform="matrix(0.280016,0,0,-0.284202,13.103768,15.466402)">
<stop offset="0" style="stop-color:rgb(100%,83.529412%,12.941176%);stop-opacity:1;"/>
<stop offset="0.05" style="stop-color:rgb(100%,83.529412%,12.941176%);stop-opacity:1;"/>
<stop offset="0.501119" style="stop-color:rgb(96.078431%,0%,0%);stop-opacity:1;"/>
<stop offset="0.95" style="stop-color:rgb(72.54902%,0%,70.588235%);stop-opacity:1;"/>
<stop offset="0.950079" style="stop-color:rgb(72.54902%,0%,70.588235%);stop-opacity:1;"/>
<stop offset="1" style="stop-color:rgb(72.54902%,0%,70.588235%);stop-opacity:1;"/>
</linearGradient>
</defs>
<g id="surface1">
<path style=" stroke:none;fill-rule:nonzero;fill:url(#linear0);" d="M 21.941406 7.40625 C 21.941406 6.898438 21.535156 6.488281 21.03125 6.488281 C 20.53125 6.488281 20.125 6.898438 20.125 7.40625 C 20.125 7.914062 20.53125 8.328125 21.03125 8.328125 C 21.535156 8.328125 21.941406 7.914062 21.941406 7.40625 "/>
<path style=" stroke:none;fill-rule:nonzero;fill:url(#linear1);" d="M 23.148438 14.597656 C 23.117188 15.34375 22.992188 15.75 22.890625 16.019531 C 22.753906 16.378906 22.589844 16.632812 22.324219 16.902344 C 22.058594 17.171875 21.808594 17.335938 21.457031 17.476562 C 21.191406 17.582031 20.789062 17.707031 20.050781 17.742188 C 19.253906 17.777344 19.019531 17.785156 17 17.785156 C 14.980469 17.785156 14.742188 17.777344 13.945312 17.742188 C 13.210938 17.707031 12.808594 17.582031 12.542969 17.476562 C 12.191406 17.335938 11.941406 17.171875 11.675781 16.902344 C 11.410156 16.632812 11.246094 16.378906 11.109375 16.019531 C 11.007812 15.75 10.882812 15.34375 10.851562 14.597656 C 10.8125 13.789062 10.804688 13.546875 10.804688 11.5 C 10.804688 9.453125 10.8125 9.210938 10.851562 8.402344 C 10.882812 7.65625 11.007812 7.25 11.109375 6.976562 C 11.246094 6.621094 11.410156 6.363281 11.675781 6.097656 C 11.941406 5.828125 12.191406 5.664062 12.542969 5.523438 C 12.808594 5.417969 13.210938 5.292969 13.945312 5.257812 C 14.742188 5.222656 14.980469 5.214844 17 5.214844 C 19.019531 5.214844 19.253906 5.222656 20.050781 5.257812 C 20.789062 5.292969 21.191406 5.417969 21.457031 5.523438 C 21.808594 5.664062 22.058594 5.828125 22.324219 6.097656 C 22.589844 6.363281 22.753906 6.621094 22.890625 6.976562 C 22.992188 7.25 23.117188 7.65625 23.148438 8.402344 C 23.1875 9.210938 23.195312 9.453125 23.195312 11.5 C 23.195312 13.546875 23.1875 13.789062 23.148438 14.597656 Z M 24.507812 8.339844 C 24.472656 7.523438 24.34375 6.964844 24.15625 6.476562 C 23.964844 5.972656 23.707031 5.546875 23.285156 5.117188 C 22.867188 4.695312 22.445312 4.433594 21.949219 4.234375 C 21.46875 4.046875 20.921875 3.914062 20.113281 3.878906 C 19.308594 3.839844 19.050781 3.832031 17 3.832031 C 14.949219 3.832031 14.6875 3.839844 13.882812 3.878906 C 13.078125 3.914062 12.53125 4.046875 12.050781 4.234375 C 11.554688 4.433594 11.132812 4.695312 10.714844 5.117188 C 10.292969 5.546875 10.035156 5.972656 9.839844 6.476562 C 9.652344 6.964844 9.527344 7.523438 9.488281 8.339844 C 9.453125 9.15625 9.445312 9.417969 9.445312 11.5 C 9.445312 13.582031 9.453125 13.84375 9.488281 14.660156 C 9.527344 15.476562 9.652344 16.035156 9.839844 16.523438 C 10.035156 17.023438 10.292969 17.453125 10.714844 17.878906 C 11.132812 18.304688 11.554688 18.566406 12.050781 18.765625 C 12.53125 18.953125 13.078125 19.082031 13.882812 19.121094 C 14.6875 19.15625 14.949219 19.167969 17 19.167969 C 19.050781 19.167969 19.308594 19.15625 20.113281 19.121094 C 20.921875 19.082031 21.46875 18.953125 21.949219 18.765625 C 22.445312 18.566406 22.867188 18.304688 23.285156 17.878906 C 23.707031 17.453125 23.964844 17.023438 24.15625 16.523438 C 24.34375 16.035156 24.472656 15.476562 24.507812 14.660156 C 24.546875 13.84375 24.554688 13.582031 24.554688 11.5 C 24.554688 9.417969 24.546875 9.15625 24.507812 8.339844 Z M 24.507812 8.339844 "/>
<path style=" stroke:none;fill-rule:nonzero;fill:url(#linear2);" d="M 17 14.054688 C 15.609375 14.054688 14.480469 12.910156 14.480469 11.5 C 14.480469 10.089844 15.609375 8.945312 17 8.945312 C 18.390625 8.945312 19.519531 10.089844 19.519531 11.5 C 19.519531 12.910156 18.390625 14.054688 17 14.054688 Z M 17 7.5625 C 14.855469 7.5625 13.121094 9.328125 13.121094 11.5 C 13.121094 13.671875 14.855469 15.4375 17 15.4375 C 19.140625 15.4375 20.878906 13.671875 20.878906 11.5 C 20.878906 9.328125 19.140625 7.5625 17 7.5625 Z M 17 7.5625 "/>
</g>
</svg>
